<svg width="21" height="21" viewBox="0 0 21 21" fill="none" xmlns="http://www.w3.org/2000/svg">
<path opacity="0.4" d="M7.6728 11.7537L4.59011 12.0264C3.8983 12.0264 3.3374 11.46 3.3374 10.7615C3.3374 10.0629 3.8983 9.49653 4.59011 9.49653L7.6728 9.76916C8.21553 9.76916 8.65552 10.2134 8.65552 10.7615C8.65552 11.3104 8.21553 11.7537 7.6728 11.7537Z" fill="white"/>
<path d="M18.0247 11.7035C17.9765 11.7522 17.7965 11.9578 17.6274 12.1285C16.641 13.1979 14.0656 14.9466 12.7184 15.4817C12.5138 15.5671 11.9966 15.7489 11.7193 15.7617C11.4547 15.7617 11.202 15.7002 10.9611 15.579C10.6602 15.4092 10.4202 15.1412 10.2875 14.8254C10.2029 14.607 10.0702 13.9506 10.0702 13.9387C9.93839 13.2218 9.86658 12.056 9.86658 10.7672C9.86658 9.54086 9.93839 8.42282 10.0466 7.69398C10.0584 7.68112 10.1911 6.86691 10.3357 6.58786C10.6002 6.07749 11.1175 5.76172 11.6711 5.76172H11.7193C12.0802 5.77365 12.8384 6.09034 12.8384 6.10136C14.1138 6.63651 16.6283 8.30073 17.6392 9.40684C17.6392 9.40684 17.9247 9.6914 18.0483 9.86857C18.241 10.1238 18.3374 10.4395 18.3374 10.7553C18.3374 11.1078 18.2292 11.4355 18.0247 11.7035Z" fill="white"/>
</svg>
