<svg width="20" height="20" viewBox="0 0 20 20" fill="none" xmlns="http://www.w3.org/2000/svg">
<path d="M3.19435 7.79436C3.70711 5.55721 5.4139 3.81043 7.59984 3.28566C9.17849 2.90668 10.8214 2.90668 12.4001 3.28566C14.586 3.81043 16.2928 5.55721 16.8056 7.79436C17.1759 9.41 17.1759 11.0914 16.8056 12.7071C16.2928 14.9442 14.586 16.691 12.4001 17.2158C10.8214 17.5947 9.17849 17.5947 7.59984 17.2158C5.4139 16.691 3.70711 14.9442 3.19435 12.7071C2.82405 11.0914 2.82405 9.41 3.19435 7.79436Z" fill="white" fill-opacity="0.15"/>
<path d="M6.72503 2.5V4.59479M13.2749 2.5V4.59479M3.19435 12.7071C2.82405 11.0914 2.82405 9.41 3.19435 7.79436C3.70711 5.55721 5.4139 3.81043 7.59984 3.28566C9.17849 2.90668 10.8214 2.90668 12.4001 3.28566C14.586 3.81043 16.2928 5.55721 16.8056 7.79436C17.1759 9.41 17.1759 11.0914 16.8056 12.7071C16.2928 14.9442 14.586 16.691 12.4001 17.2158C10.8214 17.5947 9.17849 17.5947 7.59984 17.2158C5.4139 16.691 3.70711 14.9442 3.19435 12.7071Z" stroke="white" stroke-width="1.5" stroke-linecap="round"/>
<path d="M11.6667 10.8334H8.33337M10 12.5001L10 9.16675" stroke="white" stroke-width="1.5" stroke-linecap="round"/>
</svg>
