<svg width="20" height="20" viewBox="0 0 20 20" fill="none" xmlns="http://www.w3.org/2000/svg">
<path d="M16.4746 9.70453C15.8658 8.99366 15.5892 8.37763 15.5892 7.33105V6.97519C15.5892 5.61136 15.2753 4.73264 14.5928 3.85391C13.541 2.48924 11.7703 1.66675 10.0368 1.66675H9.9631C8.26609 1.66675 6.55085 2.45147 5.48079 3.76075C4.76107 4.6571 4.41073 5.57359 4.41073 6.97519V7.33105C4.41073 8.37763 4.15233 8.99366 3.52537 9.70453C3.06405 10.2282 2.91663 10.9013 2.91663 11.6298C2.91663 12.3592 3.15598 13.0499 3.63635 13.6114C4.26331 14.2845 5.14867 14.7142 6.05309 14.7889C7.3625 14.9383 8.67191 14.9945 10.0004 14.9945C11.328 14.9945 12.6374 14.9005 13.9477 14.7889C14.8512 14.7142 15.7366 14.2845 16.3636 13.6114C16.8431 13.0499 17.0833 12.3592 17.0833 11.6298C17.0833 10.9013 16.9359 10.2282 16.4746 9.70453Z" fill="white"/>
<path opacity="0.4" d="M11.6738 16.0238C11.2572 15.9348 8.71876 15.9348 8.30217 16.0238C7.94603 16.106 7.56091 16.2974 7.56091 16.717C7.58162 17.1173 7.816 17.4707 8.14067 17.6948L8.13984 17.6956C8.55974 18.0229 9.05253 18.2311 9.56851 18.3058C9.84348 18.3435 10.1234 18.3418 10.4083 18.3058C10.9235 18.2311 11.4163 18.0229 11.8362 17.6956L11.8353 17.6948C12.16 17.4707 12.3944 17.1173 12.4151 16.717C12.4151 16.2974 12.03 16.106 11.6738 16.0238Z" fill="white"/>
</svg>
