<svg width="20" height="20" viewBox="0 0 20 20" fill="none" xmlns="http://www.w3.org/2000/svg">
<path d="M8.83264 16.0888C12.7903 16.0888 15.9987 12.8603 15.9987 8.87778C15.9987 4.89524 12.7903 1.66675 8.83264 1.66675C4.87496 1.66675 1.66663 4.89524 1.66663 8.87778C1.66663 12.8603 4.87496 16.0888 8.83264 16.0888Z" fill="white"/>
<path opacity="0.4" d="M17.2288 18.296C16.9504 18.287 16.6857 18.1725 16.4877 17.9754L14.7907 15.9918C14.4269 15.6591 14.3971 15.0936 14.724 14.7241C14.877 14.5692 15.085 14.4822 15.302 14.4822C15.519 14.4822 15.727 14.5692 15.8801 14.7241L18.0143 16.4317C18.3217 16.7464 18.4166 17.2135 18.2565 17.6243C18.0964 18.0351 17.7113 18.3128 17.2732 18.3333L17.2288 18.296Z" fill="white"/>
</svg>
