<svg width="20" height="21" viewBox="0 0 20 21" fill="none" xmlns="http://www.w3.org/2000/svg">
<path d="M9.70708 13.4135C9.52042 13.4135 9.33375 13.3427 9.19125 13.2002L7.21375 11.2227C6.92875 10.9377 6.92875 10.476 7.21375 10.1918C7.49875 9.90684 7.95958 9.90601 8.24458 10.191L9.70708 11.6535L13.1471 8.21351C13.4321 7.92851 13.8929 7.92851 14.1779 8.21351C14.4629 8.49851 14.4629 8.96017 14.1779 9.24517L10.2229 13.2002C10.0804 13.3427 9.89375 13.4135 9.70708 13.4135Z" fill="white"/>
<path opacity="0.4" d="M18.6667 10.3333C18.6667 14.9367 14.9358 18.6667 10.3333 18.6667C5.73083 18.6667 2 14.9367 2 10.3333C2 5.73167 5.73083 2 10.3333 2C14.9358 2 18.6667 5.73167 18.6667 10.3333Z" fill="white"/>
</svg>
