<svg width="20" height="20" viewBox="0 0 20 20" fill="none" xmlns="http://www.w3.org/2000/svg">
<path d="M7.79107 12.3816C4.4879 12.3816 1.66663 12.8919 1.66663 14.9313C1.66663 16.9723 4.46996 17.5001 7.79107 17.5001C11.0942 17.5001 13.9155 16.9899 13.9155 14.9505C13.9155 12.9094 11.1122 12.3816 7.79107 12.3816Z" fill="#F9F9F9"/>
<path opacity="0.4" d="M7.79105 10.4376C10.0407 10.4376 11.8436 8.67205 11.8436 6.46892C11.8436 4.26579 10.0407 2.50024 7.79105 2.50024C5.54218 2.50024 3.73853 4.26579 3.73853 6.46892C3.73853 8.67205 5.54218 10.4376 7.79105 10.4376Z" fill="#F9F9F9"/>
<path opacity="0.4" d="M13.4778 6.54085C13.4778 7.66278 13.1337 8.70965 12.5303 9.57925C12.4675 9.66868 12.5229 9.78926 12.6322 9.80842C12.7839 9.83318 12.9396 9.84835 13.0986 9.85154C14.6805 9.89227 16.1001 8.89491 16.4923 7.39288C17.0737 5.16419 15.3679 3.16309 13.1948 3.16309C12.9592 3.16309 12.7333 3.18704 12.5132 3.23096C12.483 3.23735 12.4504 3.25172 12.4341 3.27728C12.4129 3.31001 12.4284 3.35234 12.4496 3.38029C13.1027 4.27703 13.4778 5.36862 13.4778 6.54085Z" fill="#F9F9F9"/>
<path d="M18.1492 12.6414C17.8598 12.0369 17.161 11.6224 16.0977 11.4188C15.5962 11.299 14.2378 11.129 12.9747 11.1529C12.956 11.1553 12.9454 11.1681 12.9438 11.1761C12.9413 11.1888 12.947 11.208 12.9715 11.2216C13.5553 11.5043 15.8115 12.734 15.5277 15.3276C15.5155 15.441 15.6077 15.5368 15.7226 15.5209C16.2779 15.4434 17.7065 15.1424 18.1492 14.2065C18.3947 13.7114 18.3947 13.1365 18.1492 12.6414Z" fill="#F9F9F9"/>
</svg>
